<svg width="8" height="8" fill="none" xmlns="http://www.w3.org/2000/svg"><g fill="#626262"><path d="M7.978 2.35a2.97 2.97 0 0 0-.186-.971 1.95 1.95 0 0 0-.46-.708A1.962 1.962 0 0 0 6.623.21c-.255-.1-.546-.167-.972-.186C5.225.004 5.09 0 4.004 0 2.917 0 2.781.005 2.356.024c-.426.02-.717.088-.972.186a1.941 1.941 0 0 0-.709.46c-.22.224-.36.446-.46.709a2.97 2.97 0 0 0-.186.972C.009 2.778.005 2.914.005 4c0 1.087.005 1.223.024 1.65.02.425.088.717.186.971.102.263.238.487.46.708.221.223.445.36.708.461.254.1.545.167.971.186.427.02.563.024 1.648.024 1.087 0 1.223-.005 1.649-.024a2.97 2.97 0 0 0 .971-.186c.263-.102.487-.238.708-.46.22-.224.36-.446.46-.709.1-.254.167-.546.186-.972C7.996 5.222 8 5.086 8 4s-.003-1.223-.022-1.65Zm-.719 3.267c-.017.391-.083.604-.137.743-.073.186-.16.32-.301.461a1.272 1.272 0 0 1-.461.301c-.141.055-.354.12-.743.138-.42.02-.547.024-1.616.024-1.07 0-1.196-.005-1.616-.024-.39-.017-.604-.083-.743-.138a1.245 1.245 0 0 1-.46-.3A1.273 1.273 0 0 1 .88 6.36c-.054-.14-.12-.354-.137-.743C.723 5.197.719 5.07.719 4c0-1.07.004-1.196.024-1.617.017-.391.083-.604.137-.743.072-.186.16-.32.301-.461.14-.141.274-.226.461-.301.14-.055.354-.12.743-.138C2.805.72 2.932.716 4 .716S5.196.72 5.617.74c.39.017.604.083.743.138.185.072.32.16.46.3.141.141.226.274.302.462.054.14.12.354.137.743.02.42.024.547.024 1.617 0 1.07-.006 1.196-.024 1.617Z"/><path d="M4 1.944c-1.135 0-2.054.92-2.054 2.056a2.055 2.055 0 1 0 4.11 0A2.054 2.054 0 0 0 4 1.944Zm0 3.39a1.334 1.334 0 1 1 .002-2.667A1.334 1.334 0 0 1 4 5.334Zm2.136-2.99a.48.48 0 1 0 0-.96.48.48 0 0 0 0 .96Z"/><path d="M0 4c0 1.087.005 1.223.024 1.65.02.425.088.717.186.971.102.263.238.487.46.708.221.221.445.36.708.461.254.1.546.167.971.186.428.02.564.024 1.649.024 1.086 0 1.222-.005 1.648-.024a2.97 2.97 0 0 0 .971-.186c.263-.102.487-.238.708-.46.22-.222.36-.446.46-.709.1-.254.167-.546.186-.972.02-.427.024-.563.024-1.649 0-1.087-.005-1.223-.024-1.65a2.97 2.97 0 0 0-.185-.971A1.95 1.95 0 0 0 7.325.67a1.91 1.91 0 0 0-.706-.46c-.255-.1-.546-.167-.971-.186C5.22.004 5.084 0 3.999 0 2.913 0 2.777.005 2.351.024c-.426.02-.717.088-.972.186a1.949 1.949 0 0 0-.707.46c-.22.224-.36.446-.46.709-.1.254-.169.546-.188.972C.004 2.777 0 2.913 0 4Zm.722 0c0-1.068.005-1.196.024-1.617.017-.391.083-.604.137-.743.072-.186.16-.32.301-.461.141-.141.274-.226.461-.301.141-.055.354-.12.743-.138.42-.02.547-.024 1.616-.024S5.199.72 5.62.74c.39.017.604.083.743.138.186.072.32.16.46.3.142.141.226.274.302.462.054.14.12.354.137.743.02.42.024.547.024 1.617 0 1.07-.005 1.196-.024 1.617-.017.391-.083.604-.137.743-.072.186-.16.32-.301.461a1.272 1.272 0 0 1-.461.301c-.141.055-.354.12-.743.138-.42.02-.547.024-1.616.024S2.809 7.28 2.388 7.26c-.39-.017-.604-.083-.743-.138a1.245 1.245 0 0 1-.46-.3 1.273 1.273 0 0 1-.302-.462c-.054-.14-.12-.354-.137-.743C.725 5.197.722 5.068.722 4Z"/></g></svg>