<svg width="8" height="8" fill="none" xmlns="http://www.w3.org/2000/svg"><path d="M0 .888C0 .631.09.418.27.251.45.084.685 0 .973 0c.283 0 .512.082.687.247.18.17.27.391.27.664a.813.813 0 0 1-.262.618c-.18.17-.417.255-.71.255H.95c-.283 0-.512-.085-.687-.255A.856.856 0 0 1 0 .888Zm.1 6.757V2.486h1.715v5.159H.1Zm2.664 0H4.48v-2.88c0-.18.02-.32.062-.418a1.12 1.12 0 0 1 .328-.444.839.839 0 0 1 .552-.181c.576 0 .865.389.865 1.166v2.757H8V4.687c0-.762-.18-1.34-.54-1.733-.36-.394-.837-.591-1.43-.591-.663 0-1.18.286-1.551.857v.016H4.47l.008-.016v-.734H2.764c.01.165.016.677.016 1.537 0 .86-.005 2.067-.016 3.622Z" fill="#626262"/></svg>