<svg width="21" height="13" fill="none" xmlns="http://www.w3.org/2000/svg"><path d="M20.393 5.501c.275.548.414 1.153.407 1.766v2.425a1.416 1.416 0 0 1-1.415 1.416h-.286l-.048.131a2.223 2.223 0 0 1-4.18 0l-.047-.131H6.176l-.048.13a2.223 2.223 0 0 1-4.209-.103l-.031-.101-.102-.031A2.223 2.223 0 0 1 .2 8.884v-6.46A2.223 2.223 0 0 1 2.423.2h10.5a2.223 2.223 0 0 1 2.223 2.223v.2h2.43a2.223 2.223 0 0 1 2.008 1.26l.001.003.808 1.615Zm-6.662 4.391h.2V2.423a1.008 1.008 0 0 0-1.008-1.008h-10.5a1.008 1.008 0 0 0-1.008 1.008v6.462a1.008 1.008 0 0 0 .303.716l.198.195.122-.25a2.223 2.223 0 0 1 4.09.214l.048.132h7.555Zm5.654 0h.2l-2.01-5.854v-.2h-2.429V9.16l.335-.304a2.223 2.223 0 0 1 1.48-.578 2.223 2.223 0 0 1 2.09 1.482l.047.133h.287Zm-3.412.411.196.04-.196-.04a1.008 1.008 0 1 0 1.977.394 1.008 1.008 0 0 0-1.977-.394ZM3.48 11.338A1.008 1.008 0 1 0 4.6 9.662a1.008 1.008 0 0 0-1.12 1.676Z" fill="#626262" stroke="#191919" stroke-width=".4"/></svg>