<svg width="8" height="6" fill="none" xmlns="http://www.w3.org/2000/svg"><path d="M6.819 1.394c.003.062.003.12.003.182C6.825 3.444 5.257 5.6 2.39 5.6A4.77 4.77 0 0 1 0 4.964a3.337 3.337 0 0 0 2.306-.588c-.667-.01-1.253-.406-1.457-.982.235.042.475.033.704-.026C.827 3.24.306 2.66.303 1.985v-.017c.216.11.46.171.706.177C.327 1.73.114.905.528.258c.793.884 1.96 1.42 3.213 1.478-.126-.49.047-1.005.451-1.352.627-.535 1.614-.507 2.207.061.349-.061.685-.179.991-.344a1.458 1.458 0 0 1-.685.781A3.47 3.47 0 0 0 7.6.661c-.21.285-.475.532-.781.733Z" fill="#626262"/></svg>